<svg width="51" height="50" viewBox="0 0 51 50" fill="none" xmlns="http://www.w3.org/2000/svg">
  <g clip-path="url(#clip0_203_63)">
    <path fill-rule="evenodd" clip-rule="evenodd" d="M30.5022 8.00391C29.6607 7.47516 28.7261 7.0824 27.7297 6.85349C26.734 6.62476 25.5885 6.62485 23.655 6.62501L23.5 6.62502L23.345 6.62501C21.4115 6.62485 20.266 6.62476 19.2703 6.85349C16.2574 7.54563 13.8106 9.73563 12.79 12.6537C12.4527 13.618 12.3263 14.7565 12.1129 16.6782L12.0958 16.8322L11.6237 21.0814C11.4455 22.685 11.3667 23.3552 11.1678 23.9861C11.1395 24.0756 11.1095 24.1646 11.0777 24.2529C10.8536 24.8753 10.5101 25.4562 9.67998 26.8397L7.58489 30.3315L7.54738 30.394L7.54736 30.3941C7.17676 31.0116 6.84232 31.5688 6.6481 32.0371C6.44459 32.5279 6.27584 33.1982 6.65078 33.8604C7.02572 34.5226 7.68735 34.7228 8.21284 34.8008C8.71436 34.8752 9.36428 34.8751 10.0845 34.875H10.0845L10.1574 34.875H36.8426L36.9155 34.875H36.9155C37.6357 34.8751 38.2856 34.8752 38.7871 34.8008C39.3126 34.7228 39.9743 34.5226 40.3492 33.8604C40.7241 33.1982 40.5554 32.5279 40.3519 32.0371C40.1577 31.5688 39.8232 31.0116 39.4527 30.3941L39.4526 30.3941L39.4151 30.3315L37.32 26.8397C36.4899 25.4562 36.1464 24.8753 35.9223 24.2529C35.8905 24.1646 35.8604 24.0756 35.8322 23.9861C35.6333 23.3552 35.5545 22.685 35.3763 21.0814L35.2541 19.9815C35.0877 19.9938 34.9196 20 34.75 20C34.2254 20 33.7148 19.9402 33.2246 19.8269L33.3885 21.3023L33.4005 21.4104L33.4005 21.4105C33.5631 22.8741 33.6601 23.7482 33.9248 24.5875C33.9611 24.7026 33.9997 24.817 34.0406 24.9306C34.3387 25.7586 34.7913 26.5127 35.549 27.7754L35.605 27.8687L37.7001 31.3605C38.1204 32.061 38.3741 32.4891 38.5045 32.8033L38.5112 32.8198L38.4936 32.8224C38.1572 32.8724 37.6595 32.875 36.8426 32.875H10.1574C9.34048 32.875 8.84283 32.8724 8.50635 32.8224L8.48878 32.8198L8.49553 32.8033C8.62584 32.4891 8.87959 32.061 9.29988 31.3605L11.395 27.8687L11.451 27.7754C12.2087 26.5127 12.6612 25.7586 12.9594 24.9306C13.0003 24.817 13.0389 24.7026 13.0752 24.5875C13.3398 23.7482 13.4369 22.8741 13.5994 21.4104L13.6114 21.3023L14.0836 17.0531C14.3193 14.9317 14.4251 14.0366 14.6778 13.314C15.4717 11.0444 17.3747 9.34105 19.7181 8.80272C20.4642 8.63132 21.3655 8.62502 23.5 8.62502C25.6345 8.62502 26.5358 8.63132 27.2819 8.80272C27.9364 8.95307 28.5565 9.1943 29.1277 9.51336C29.5074 8.94322 29.9715 8.43412 30.5022 8.00391ZM32.7846 10.0557C32.199 10.4168 31.7202 10.9344 31.4065 11.5502C31.7892 12.0847 32.0994 12.677 32.3221 13.314C32.5511 13.9685 32.6595 14.7646 32.853 16.4855C33.4095 16.8125 34.0579 17 34.75 17C34.8078 17 34.8652 16.9987 34.9224 16.9961L34.9042 16.8322L34.8871 16.6782C34.6737 14.7565 34.5473 13.618 34.21 12.6537C33.8769 11.7012 33.3918 10.8263 32.7846 10.0557ZM38.5716 33.0126C38.5714 33.0125 38.571 33.01 38.5709 33.0053C38.5717 33.0104 38.5717 33.0127 38.5716 33.0126ZM38.701 32.7755C38.7051 32.7732 38.7074 32.7722 38.7076 32.7723C38.7078 32.7724 38.7058 32.7735 38.701 32.7755ZM8.29234 32.7723C8.29252 32.7722 8.29489 32.7732 8.29894 32.7755C8.29419 32.7735 8.29216 32.7724 8.29234 32.7723ZM8.42906 33.0053C8.42894 33.01 8.42856 33.0125 8.4284 33.0126C8.42824 33.0127 8.42831 33.0104 8.42906 33.0053Z" fill="black"/>
    <path d="M18.0667 35.1213C18.3872 36.9154 19.0933 38.5007 20.0757 39.6314C21.0581 40.7621 22.2617 41.375 23.5 41.375C24.7383 41.375 25.9419 40.7621 26.9243 39.6314C27.9067 38.5007 28.6128 36.9154 28.9333 35.1213" stroke="black" stroke-width="2" stroke-linecap="round"/>
    <circle cx="34.75" cy="13.25" r="4.25" fill="black" stroke="black"/>
  </g>
  <defs>
    <clipPath id="clip0_203_63">
      <rect width="50" height="50" fill="black" transform="translate(0.5)"/>
    </clipPath>
  </defs>
</svg>
