<svg width="100" height="100" viewBox="0 0 67 52" fill="none" xmlns="http://www.w3.org/2000/svg">
  <g clip-path="url(#clip0_212_118)">
    <path d="M19.125 31.4764C19.125 29.5565 20.6815 28 22.6014 28V28C23.9182 28 25.122 27.256 25.7109 26.0783L27.3944 22.7111C27.9323 21.6353 28.2013 21.0974 28.6846 20.7987C29.1679 20.5 29.7693 20.5 30.9721 20.5H41.0279C42.2307 20.5 42.8321 20.5 43.3154 20.7987C43.7987 21.0974 44.0677 21.6353 44.6056 22.7111L46.2891 26.0783C46.878 27.256 48.0818 28 49.3986 28V28C51.3185 28 52.875 29.5565 52.875 31.4764V44.5C52.875 47.3284 52.875 48.7426 51.9963 49.6213C51.1176 50.5 49.7034 50.5 46.875 50.5H25.125C22.2966 50.5 20.8824 50.5 20.0037 49.6213C19.125 48.7426 19.125 47.3284 19.125 44.5V31.4764Z" stroke="black" stroke-width="2"/>
    <circle cx="36" cy="37.375" r="6.5" stroke="black" stroke-width="2"/>
  </g>
</svg>
