<svg width="116" height="25" viewBox="0 0 116 25" fill="none" xmlns="http://www.w3.org/2000/svg">
  <path d="M17 13.5C18.0609 13.5 19.0783 13.9214 19.8284 14.6716C20.5786 15.4217 21 16.4391 21 17.5C21 18.5609 20.5786 19.5783 19.8284 20.3284C19.0783 21.0786 18.0609 21.5 17 21.5C14.858 21.5 13 19.71 13 17.5H11C10.9996 18.4704 10.6465 19.4077 10.0063 20.137C9.36617 20.8664 8.48269 21.3382 7.5205 21.4644C6.55831 21.5907 5.58302 21.3629 4.77635 20.8234C3.96968 20.2839 3.38664 19.4696 3.13586 18.5321C2.88509 17.5946 2.98368 16.5979 3.41326 15.7278C3.84285 14.8576 4.57414 14.1732 5.47087 13.8023C6.36761 13.4313 7.36863 13.3989 8.28743 13.7113C9.20623 14.0236 9.98016 14.6594 10.465 15.5H13.535C13.886 14.8917 14.3911 14.3865 14.9993 14.0354C15.6076 13.6843 16.2977 13.4996 17 13.5ZM2 12.5V10.5H4V7.5C4 6.43913 4.42143 5.42172 5.17157 4.67157C5.92172 3.92143 6.93913 3.5 8 3.5H16C17.0609 3.5 18.0783 3.92143 18.8284 4.67157C19.5786 5.42172 20 6.43913 20 7.5V10.5H22V12.5H2Z" fill="#C62510"/>
  <path d="M34.2 18.66C33.3573 18.66 32.6107 18.5693 31.96 18.388C31.32 18.196 30.7547 17.9293 30.264 17.588C29.784 17.2467 29.352 16.8467 28.968 16.388L30.968 14.148C31.5013 14.8307 32.056 15.284 32.632 15.508C33.2187 15.7213 33.768 15.828 34.28 15.828C34.4827 15.828 34.664 15.812 34.824 15.78C34.984 15.7373 35.1067 15.6733 35.192 15.588C35.2773 15.5027 35.32 15.3853 35.32 15.236C35.32 15.0973 35.272 14.98 35.176 14.884C35.0907 14.788 34.9733 14.708 34.824 14.644C34.6747 14.5693 34.5093 14.5107 34.328 14.468C34.1573 14.4147 33.9867 14.372 33.816 14.34C33.656 14.308 33.512 14.276 33.384 14.244C32.744 14.0947 32.184 13.9133 31.704 13.7C31.224 13.4867 30.824 13.2307 30.504 12.932C30.184 12.6333 29.944 12.292 29.784 11.908C29.6347 11.524 29.56 11.092 29.56 10.612C29.56 10.068 29.6827 9.572 29.928 9.124C30.184 8.676 30.52 8.292 30.936 7.972C31.3627 7.652 31.8427 7.40667 32.376 7.236C32.92 7.06533 33.48 6.98 34.056 6.98C34.8987 6.98 35.6027 7.06 36.168 7.22C36.7333 7.36933 37.208 7.588 37.592 7.876C37.976 8.164 38.3067 8.5 38.584 8.884L36.568 10.82C36.3333 10.596 36.088 10.4147 35.832 10.276C35.576 10.1267 35.3093 10.02 35.032 9.956C34.7653 9.88133 34.4987 9.844 34.232 9.844C33.9867 9.844 33.7787 9.86533 33.608 9.908C33.4373 9.94 33.304 9.99867 33.208 10.084C33.112 10.1587 33.064 10.2653 33.064 10.404C33.064 10.5427 33.1227 10.66 33.24 10.756C33.368 10.8413 33.5227 10.916 33.704 10.98C33.896 11.044 34.0827 11.0973 34.264 11.14C34.456 11.172 34.616 11.1987 34.744 11.22C35.3307 11.3267 35.8693 11.476 36.36 11.668C36.8507 11.8493 37.2773 12.084 37.64 12.372C38.0133 12.6493 38.296 13.0013 38.488 13.428C38.6907 13.844 38.792 14.34 38.792 14.916C38.792 15.7373 38.584 16.4253 38.168 16.98C37.7627 17.5347 37.2133 17.956 36.52 18.244C35.8267 18.5213 35.0533 18.66 34.2 18.66ZM47.202 18.5V7.3H50.658V18.5H47.202ZM40.53 18.5V7.3H43.986V18.5H40.53ZM41.826 14.42L41.842 11.412H49.154V14.42H41.826ZM53.1375 18.5V15.7H55.1055V10.1H53.1375V7.3H60.5295V10.1H58.5615V15.7H60.5295V18.5H53.1375ZM63.0144 18.5V7.3H71.3824V10.1H66.3264V15.7H71.6704V18.5H63.0144ZM64.6624 14.148V11.524H70.7904V14.148H64.6624ZM73.7019 18.5V7.3H77.1579V15.556H81.9579V18.5H73.7019ZM83.5613 18.5V7.3H88.4893C89.3319 7.3 90.1053 7.43867 90.8093 7.716C91.5133 7.99333 92.1266 8.38267 92.6493 8.884C93.1719 9.37467 93.5719 9.96133 93.8493 10.644C94.1373 11.3267 94.2813 12.0787 94.2813 12.9C94.2813 13.7107 94.1373 14.4627 93.8493 15.156C93.5719 15.8387 93.1719 16.4307 92.6493 16.932C92.1266 17.4227 91.5133 17.8067 90.8093 18.084C90.1053 18.3613 89.3319 18.5 88.4893 18.5H83.5613ZM87.0173 16.372L86.4253 15.556H88.4093C88.7613 15.556 89.0813 15.492 89.3693 15.364C89.6573 15.2253 89.9079 15.0387 90.1213 14.804C90.3346 14.5693 90.4999 14.292 90.6173 13.972C90.7346 13.6413 90.7933 13.284 90.7933 12.9C90.7933 12.516 90.7346 12.164 90.6173 11.844C90.4999 11.5133 90.3346 11.2307 90.1213 10.996C89.9079 10.7613 89.6573 10.58 89.3693 10.452C89.0813 10.3133 88.7613 10.244 88.4093 10.244H86.3773L87.0173 9.46V16.372ZM94.2894 18.5L98.7854 7.3H101.505L105.969 18.5H102.545L100.753 13.604C100.636 13.2733 100.535 12.9907 100.449 12.756C100.364 12.5213 100.289 12.3027 100.225 12.1C100.161 11.8867 100.097 11.6627 100.033 11.428C99.9694 11.1827 99.9054 10.8947 99.8414 10.564H100.385C100.321 10.8947 100.257 11.1827 100.193 11.428C100.129 11.6627 100.06 11.8867 99.9854 12.1C99.9214 12.3027 99.8414 12.5213 99.7454 12.756C99.66 12.9907 99.5587 13.2733 99.4414 13.604L97.6494 18.5H94.2894ZM96.5294 16.836L97.5374 14.484H102.737L103.649 16.836H96.5294ZM106.856 18.5V15.7H108.824V10.1H106.856V7.3H114.248V10.1H112.28V15.7H114.248V18.5H106.856Z" fill="#EE1E1E"/>
</svg>
