<svg width="50" height="50" viewBox="0 0 50 50" fill="none" xmlns="http://www.w3.org/2000/svg">
  <path d="M4.16675 25L14.5834 33.3333V27.0833H33.3334V22.9166H14.5834V16.6666L4.16675 25Z" fill="black"/>
  <path d="M27.0855 6.24787C24.622 6.24104 22.1816 6.7231 19.9058 7.66613C17.6299 8.60916 15.5638 9.99441 13.8271 11.7416L16.773 14.6875C19.5271 11.9333 23.1896 10.4145 27.0855 10.4145C30.9813 10.4145 34.6438 11.9333 37.398 14.6875C40.1521 17.4416 41.6709 21.1041 41.6709 25C41.6709 28.8958 40.1521 32.5583 37.398 35.3125C34.6438 38.0666 30.9813 39.5854 27.0855 39.5854C23.1896 39.5854 19.5271 38.0666 16.773 35.3125L13.8271 38.2583C17.3667 41.8 22.0751 43.752 27.0855 43.752C32.0959 43.752 36.8042 41.8 40.3438 38.2583C43.8855 34.7187 45.8376 30.0104 45.8376 25C45.8376 19.9895 43.8855 15.2812 40.3438 11.7416C38.6071 9.99441 36.541 8.60916 34.2652 7.66613C31.9893 6.7231 29.549 6.24104 27.0855 6.24787Z" fill="black"/>
</svg>
