<svg width="65" height="55" viewBox="0 0 65 55" fill="none" xmlns="http://www.w3.org/2000/svg">
  <path d="M34.6967 5.625H26.875C23.3395 5.625 21.5717 5.625 20.4733 6.72335C19.375 7.8217 19.375 9.58947 19.375 13.125V31.875C19.375 35.4105 19.375 37.1783 20.4733 38.2766C21.5717 39.375 23.3395 39.375 26.875 39.375H38.125C41.6605 39.375 43.4283 39.375 44.5266 38.2766C45.625 37.1783 45.625 35.4105 45.625 31.875V16.5533C45.625 15.7869 45.625 15.4037 45.4823 15.0591C45.3395 14.7145 45.0686 14.4436 44.5267 13.9017L37.3484 6.72335C36.8064 6.18142 36.5355 5.91045 36.1909 5.76773C35.8463 5.625 35.4631 5.625 34.6967 5.625Z" stroke="black" stroke-width="2"/>
  <path d="M26.875 24.375L38.125 24.375" stroke="black" stroke-width="2" stroke-linecap="round"/>
  <path d="M26.875 31.875L34.375 31.875" stroke="black" stroke-width="2" stroke-linecap="round"/>
  <path d="M34.375 5.625V13.125C34.375 14.8928 34.375 15.7767 34.9242 16.3258C35.4733 16.875 36.3572 16.875 38.125 16.875H45.625" stroke="black" stroke-width="2"/>
</svg>
