<svg width="74" height="14" viewBox="0 0 74 14" fill="none" xmlns="http://www.w3.org/2000/svg">
  <path d="M6.2 13.66C5.35733 13.66 4.61067 13.5693 3.96 13.388C3.32 13.196 2.75467 12.9293 2.264 12.588C1.784 12.2467 1.352 11.8467 0.968 11.388L2.968 9.148C3.50133 9.83067 4.056 10.284 4.632 10.508C5.21867 10.7213 5.768 10.828 6.28 10.828C6.48267 10.828 6.664 10.812 6.824 10.78C6.984 10.7373 7.10667 10.6733 7.192 10.588C7.27733 10.5027 7.32 10.3853 7.32 10.236C7.32 10.0973 7.272 9.98 7.176 9.884C7.09067 9.788 6.97333 9.708 6.824 9.644C6.67467 9.56933 6.50933 9.51067 6.328 9.468C6.15733 9.41467 5.98667 9.372 5.816 9.34C5.656 9.308 5.512 9.276 5.384 9.244C4.744 9.09467 4.184 8.91333 3.704 8.7C3.224 8.48667 2.824 8.23067 2.504 7.932C2.184 7.63333 1.944 7.292 1.784 6.908C1.63467 6.524 1.56 6.092 1.56 5.612C1.56 5.068 1.68267 4.572 1.928 4.124C2.184 3.676 2.52 3.292 2.936 2.972C3.36267 2.652 3.84267 2.40667 4.376 2.236C4.92 2.06533 5.48 1.98 6.056 1.98C6.89867 1.98 7.60267 2.06 8.168 2.22C8.73333 2.36933 9.208 2.588 9.592 2.876C9.976 3.164 10.3067 3.5 10.584 3.884L8.568 5.82C8.33333 5.596 8.088 5.41467 7.832 5.276C7.576 5.12667 7.30933 5.02 7.032 4.956C6.76533 4.88133 6.49867 4.844 6.232 4.844C5.98667 4.844 5.77867 4.86533 5.608 4.908C5.43733 4.94 5.304 4.99867 5.208 5.084C5.112 5.15867 5.064 5.26533 5.064 5.404C5.064 5.54267 5.12267 5.66 5.24 5.756C5.368 5.84133 5.52267 5.916 5.704 5.98C5.896 6.044 6.08267 6.09733 6.264 6.14C6.456 6.172 6.616 6.19867 6.744 6.22C7.33067 6.32667 7.86933 6.476 8.36 6.668C8.85067 6.84933 9.27733 7.084 9.64 7.372C10.0133 7.64933 10.296 8.00133 10.488 8.428C10.6907 8.844 10.792 9.34 10.792 9.916C10.792 10.7373 10.584 11.4253 10.168 11.98C9.76267 12.5347 9.21333 12.956 8.52 13.244C7.82667 13.5213 7.05333 13.66 6.2 13.66ZM12.37 13.5V1.66H15.538V6.668L14.85 6.86C14.9673 6.45467 15.1753 6.09733 15.474 5.788C15.7833 5.468 16.1513 5.21733 16.578 5.036C17.0047 4.85467 17.458 4.764 17.938 4.764C18.578 4.764 19.122 4.89733 19.57 5.164C20.018 5.43067 20.354 5.82533 20.578 6.348C20.8127 6.86 20.93 7.484 20.93 8.22V13.5H17.682V8.492C17.682 8.25733 17.6447 8.06 17.57 7.9C17.4953 7.74 17.3833 7.61733 17.234 7.532C17.0847 7.44667 16.9087 7.404 16.706 7.404C16.546 7.404 16.3967 7.43067 16.258 7.484C16.13 7.52667 16.018 7.596 15.922 7.692C15.826 7.788 15.7513 7.89467 15.698 8.012C15.6447 8.12933 15.618 8.26267 15.618 8.412V13.5H14.002C13.5967 13.5 13.2553 13.5 12.978 13.5C12.7113 13.5 12.5087 13.5 12.37 13.5ZM23.0586 13.5V4.94H26.3066V13.5H23.0586ZM24.6906 3.388C24.1146 3.388 23.6613 3.25467 23.3306 2.988C23.0106 2.72133 22.8506 2.34267 22.8506 1.852C22.8506 1.404 23.016 1.036 23.3466 0.747999C23.6773 0.459999 24.1253 0.315999 24.6906 0.315999C25.2666 0.315999 25.7146 0.449333 26.0346 0.716C26.3653 0.982666 26.5306 1.36133 26.5306 1.852C26.5306 2.3 26.3653 2.668 26.0346 2.956C25.704 3.244 25.256 3.388 24.6906 3.388ZM32.7484 13.66C31.7564 13.66 30.903 13.468 30.1884 13.084C29.4737 12.7 28.9244 12.1773 28.5404 11.516C28.1564 10.844 27.9644 10.076 27.9644 9.212C27.9644 8.572 28.071 7.98 28.2844 7.436C28.4977 6.892 28.7964 6.42267 29.1804 6.028C29.575 5.62267 30.0337 5.31333 30.5564 5.1C31.0897 4.876 31.671 4.764 32.3004 4.764C32.9297 4.764 33.5004 4.876 34.0124 5.1C34.535 5.31333 34.983 5.62267 35.3564 6.028C35.7297 6.42267 36.0124 6.892 36.2044 7.436C36.407 7.98 36.4977 8.572 36.4764 9.212L36.4604 9.884H29.7564L29.3884 8.364H33.8844L33.5804 8.684V8.396C33.5804 8.19333 33.527 8.01733 33.4204 7.868C33.3244 7.708 33.1857 7.58533 33.0044 7.5C32.823 7.41467 32.6097 7.372 32.3644 7.372C32.055 7.372 31.7937 7.436 31.5804 7.564C31.367 7.692 31.2017 7.87333 31.0844 8.108C30.9777 8.34267 30.9244 8.62533 30.9244 8.956C30.9244 9.34 31.0044 9.676 31.1644 9.964C31.335 10.252 31.5804 10.476 31.9004 10.636C32.231 10.796 32.6364 10.876 33.1164 10.876C33.4364 10.876 33.7084 10.8387 33.9324 10.764C34.167 10.6787 34.4124 10.5453 34.6684 10.364L36.1564 12.46C35.7617 12.7693 35.3724 13.0093 34.9884 13.18C34.615 13.3507 34.2417 13.4733 33.8684 13.548C33.5057 13.6227 33.1324 13.66 32.7484 13.66ZM37.9794 13.5V1.66H41.2274V13.5H37.9794ZM46.3155 13.676C45.6115 13.676 44.9822 13.4893 44.4275 13.116C43.8835 12.732 43.4515 12.2093 43.1315 11.548C42.8222 10.876 42.6675 10.1027 42.6675 9.228C42.6675 8.364 42.8275 7.596 43.1475 6.924C43.4675 6.252 43.9048 5.724 44.4595 5.34C45.0248 4.956 45.6702 4.764 46.3955 4.764C46.7582 4.764 47.1048 4.81733 47.4355 4.924C47.7662 5.02 48.0648 5.164 48.3315 5.356C48.5982 5.53733 48.8222 5.756 49.0035 6.012C49.1955 6.25733 49.3235 6.524 49.3875 6.812L48.6675 7.036V1.66H51.9315V13.5H49.0035L48.7475 11.612L49.4035 11.756C49.3502 12.0333 49.2328 12.2893 49.0515 12.524C48.8702 12.7587 48.6408 12.9613 48.3635 13.132C48.0968 13.3027 47.7875 13.436 47.4355 13.532C47.0835 13.628 46.7102 13.676 46.3155 13.676ZM47.2915 11.036C47.6008 11.036 47.8622 10.9667 48.0755 10.828C48.2995 10.6787 48.4648 10.4707 48.5715 10.204C48.6888 9.93733 48.7475 9.612 48.7475 9.228C48.7475 8.844 48.6888 8.51867 48.5715 8.252C48.4648 7.97467 48.2995 7.76667 48.0755 7.628C47.8622 7.48933 47.6008 7.42 47.2915 7.42C46.9822 7.42 46.7208 7.48933 46.5075 7.628C46.2942 7.76667 46.1288 7.97467 46.0115 8.252C45.9048 8.51867 45.8515 8.844 45.8515 9.228C45.8515 9.612 45.9048 9.93733 46.0115 10.204C46.1288 10.4707 46.2942 10.6787 46.5075 10.828C46.7208 10.9667 46.9822 11.036 47.2915 11.036ZM55.1146 13.676C54.6133 13.676 54.224 13.5373 53.9466 13.26C53.6693 12.9827 53.5306 12.588 53.5306 12.076C53.5306 11.6067 53.6746 11.2227 53.9626 10.924C54.2613 10.6253 54.6453 10.476 55.1146 10.476C55.616 10.476 56.0053 10.6147 56.2826 10.892C56.56 11.1693 56.6986 11.564 56.6986 12.076C56.6986 12.5453 56.5493 12.9293 56.2506 13.228C55.9626 13.5267 55.584 13.676 55.1146 13.676ZM57.0237 13.5L61.5198 2.3H64.2398L68.7038 13.5H65.2798L63.4878 8.604C63.3704 8.27333 63.2691 7.99067 63.1838 7.756C63.0984 7.52133 63.0238 7.30267 62.9598 7.1C62.8958 6.88667 62.8318 6.66267 62.7678 6.428C62.7038 6.18267 62.6398 5.89467 62.5758 5.564H63.1198C63.0558 5.89467 62.9918 6.18267 62.9278 6.428C62.8638 6.66267 62.7944 6.88667 62.7198 7.1C62.6558 7.30267 62.5758 7.52133 62.4798 7.756C62.3944 7.99067 62.2931 8.27333 62.1758 8.604L60.3838 13.5H57.0237ZM59.2638 11.836L60.2718 9.484H65.4718L66.3837 11.836H59.2638ZM69.5586 13.5V4.94H72.8066V13.5H69.5586ZM71.1906 3.388C70.6146 3.388 70.1613 3.25467 69.8306 2.988C69.5106 2.72133 69.3506 2.34267 69.3506 1.852C69.3506 1.404 69.516 1.036 69.8466 0.747999C70.1773 0.459999 70.6253 0.315999 71.1906 0.315999C71.7666 0.315999 72.2146 0.449333 72.5346 0.716C72.8653 0.982666 73.0306 1.36133 73.0306 1.852C73.0306 2.3 72.8653 2.668 72.5346 2.956C72.204 3.244 71.756 3.388 71.1906 3.388Z" fill="#FF0009"/>
</svg>
