<svg width="20" height="19" viewBox="0 0 20 19" fill="none" xmlns="http://www.w3.org/2000/svg">
  <path d="M15 10.5C16.0609 10.5 17.0783 10.9214 17.8284 11.6716C18.5786 12.4217 19 13.4391 19 14.5C19 15.5609 18.5786 16.5783 17.8284 17.3284C17.0783 18.0786 16.0609 18.5 15 18.5C12.858 18.5 11 16.71 11 14.5H9C8.99962 15.4704 8.64646 16.4077 8.00631 17.137C7.36617 17.8664 6.48269 18.3382 5.5205 18.4644C4.55831 18.5907 3.58302 18.3629 2.77635 17.8234C1.96968 17.2839 1.38664 16.4696 1.13586 15.5321C0.885087 14.5946 0.983677 13.5979 1.41326 12.7278C1.84285 11.8576 2.57414 11.1732 3.47087 10.8023C4.36761 10.4313 5.36863 10.3989 6.28743 10.7113C7.20623 11.0236 7.98016 11.6594 8.465 12.5H11.535C11.886 11.8917 12.3911 11.3865 12.9993 11.0354C13.6076 10.6843 14.2977 10.4996 15 10.5ZM0 9.5V7.5H2V4.5C2 3.43913 2.42143 2.42172 3.17157 1.67157C3.92172 0.921427 4.93913 0.5 6 0.5H14C15.0609 0.5 16.0783 0.921427 16.8284 1.67157C17.5786 2.42172 18 3.43913 18 4.5V7.5H20V9.5H0Z" fill="#F31018"/>
</svg>
