<svg width="51" height="50" viewBox="0 0 51 50" fill="none" xmlns="http://www.w3.org/2000/svg">
  <path d="M34.3333 38.3333C34.3333 35.5719 30.6024 33.3333 26 33.3333C21.3976 33.3333 17.6667 35.5719 17.6667 38.3333M41 33.334C41 31.2836 38.9432 29.5216 36 28.75M11 33.334C11 31.2836 13.0568 29.5216 16 28.75M36 22.0602C37.0229 21.1447 37.6667 19.8142 37.6667 18.3333C37.6667 15.5719 35.4281 13.3333 32.6667 13.3333C31.3861 13.3333 30.2179 13.8148 29.3333 14.6065M16 22.0602C14.9771 21.1447 14.3333 19.8142 14.3333 18.3333C14.3333 15.5719 16.5719 13.3333 19.3333 13.3333C20.6139 13.3333 21.7821 13.8148 22.6667 14.6065M26 28.3333C23.2386 28.3333 21 26.0948 21 23.3333C21 20.5719 23.2386 18.3333 26 18.3333C28.7614 18.3333 31 20.5719 31 23.3333C31 26.0948 28.7614 28.3333 26 28.3333Z" stroke="black" stroke-width="2" stroke-linecap="round" stroke-linejoin="round"/>
</svg>
