<svg  width="20" height="20" viewBox="0 0 29 43" fill="none" xmlns="http://www.w3.org/2000/svg">
  <path class="stroke-black group-hover/user:stroke-white" d="M3.62498 34.0418H1.20831V32.2501C1.20831 28.9108 2.74866 26.1048 4.83331 25.3093M7.24998 19.4027C5.84204 18.6648 4.83331 16.6738 4.83331 14.3335C4.83331 11.9932 5.84204 10.0022 7.24998 9.26436M25.375 34.0418H27.7916V32.2501C27.7916 28.9108 26.2513 26.1048 24.1666 25.3093M21.75 9.26436C23.1579 10.0022 24.1666 11.9932 24.1666 14.3335C24.1666 16.6738 23.1579 18.6648 21.75 19.4027M12.0833 25.0835H16.9166C19.586 25.0835 21.75 28.2921 21.75 32.2502V34.0418H7.24998V32.2502C7.24998 28.2921 9.41394 25.0835 12.0833 25.0835ZM18.125 14.3335C18.125 17.302 16.502 19.7085 14.5 19.7085C12.4979 19.7085 10.875 17.302 10.875 14.3335C10.875 11.365 12.4979 8.9585 14.5 8.9585C16.502 8.9585 18.125 11.365 18.125 14.3335Z" stroke="black" stroke-width="2" stroke-linecap="round" stroke-linejoin="round"/>
</svg>
